/vscmnt/brussel_pixiu_data/_data_brussel/112/vsc11236/PredSimResults/SUBJ11opt3D/weighted-trackIG/worker_05.mot
version=1
nRows=5
nColumns=50
inDegrees=yes
endheader
                time	         pelvis_tilt	         pelvis_list	     pelvis_rotation	           pelvis_tx	           pelvis_ty	           pelvis_tz	       hip_flexion_r	     hip_adduction_r	      hip_rotation_r	        knee_angle_r	       ankle_angle_r	         mtp_angle_r	       hip_flexion_l	     hip_adduction_l	      hip_rotation_l	        knee_angle_l	       ankle_angle_l	         mtp_angle_l	    lumbar_extension	      lumbar_bending	     lumbar_rotation	 ercspn_r/activation	 intobl_r/activation	 extobl_r/activation	    abd_r/activation	    add_r/activation	hamstrings_r/activation	bifemsh_r/activation	glut_max_r/activation	iliopsoas_r/activation	rect_fem_r/activation	  vasti_r/activation	gastroc_r/activation	 soleus_r/activation	tib_ant_r/activation	 ercspn_l/activation	 intobl_l/activation	 extobl_l/activation	    abd_l/activation	    add_l/activation	hamstrings_l/activation	bifemsh_l/activation	glut_max_l/activation	iliopsoas_l/activation	rect_fem_l/activation	  vasti_l/activation	gastroc_l/activation	 soleus_l/activation	tib_ant_l/activation	
          0.00000000	         -2.14680978	         -1.66322204	          7.41830441	          0.00000000	          0.94363668	         -0.00404506	         29.71078432	         -0.83759152	         -3.01279499	         -9.86880568	          1.12713529	          0.25000980	        -13.12371004	         -3.59392431	          0.48214930	        -13.31482184	         13.36758858	         29.57240917	        -13.81235552	         -2.60788321	         -3.35980131	          0.02649886	          0.24277856	          0.06518111	          0.00999999	          0.24780877	          0.03143382	          0.07407444	          0.05683824	          0.10586473	          0.04277144	          0.02224449	          0.00999999	          0.00999999	          0.40167689	          0.00999999	          0.00999999	          0.00999999	          0.04455707	          0.00999999	          0.01916326	          0.27552733	          0.03547613	          0.17278878	          0.00999999	          0.00999999	          0.16170801	          0.34747336	          0.01245369	
          0.01472220	         -2.32966292	         -1.80217981	          7.40446373	          0.01899624	          0.94130481	         -0.00237783	         29.44861113	         -0.48627132	         -3.15814648	        -10.96492284	          0.66428932	          0.20441504	        -13.52534562	         -3.93473621	         -0.06236704	        -14.28963115	         12.65008334	         31.47290377	        -13.24572286	         -1.99075545	         -3.60469562	          0.02127790	          0.22899417	          0.05233875	          0.00999999	          0.19898405	          0.04719566	          0.05947987	          0.08056989	          0.08500664	          0.03434436	          0.01786175	          0.01245369	          0.01245369	          0.44135946	          0.01000000	          0.00999999	          0.00999999	          0.03577818	          0.02761936	          0.03880177	          0.24318012	          0.02848642	          0.13874493	          0.00999999	          0.00999999	          0.13031082	          0.32634523	          0.00999999	
          0.02944440	         -2.48983272	         -1.96762848	          7.35959892	          0.03833968	          0.93932835	         -0.00063139	         29.11838303	         -0.12011235	         -3.33647163	        -12.00611086	          0.01586710	          0.20028300	        -13.76493006	         -4.30905899	         -0.62721296	        -15.60092986	         11.74895723	         33.47682691	        -12.65168468	         -1.33301790	         -3.84318459	          0.01708561	          0.18387641	          0.04202667	          0.02859634	          0.18747369	          0.05700406	          0.04776080	          0.10234354	          0.06825814	          0.02757764	          0.02345823	          0.00999999	          0.00999999	          0.50987719	          0.01854490	          0.00999999	          0.00999999	          0.02872896	          0.02217764	          0.04770015	          0.19893841	          0.02287386	          0.11140860	          0.00999999	          0.00999999	          0.10463623	          0.29845866	          0.00999999	
          0.04416660	         -2.62869754	         -2.13754382	          7.27637921	          0.05769328	          0.93789068	          0.00120657	         28.83709627	          0.23548797	         -3.62558384	        -13.12161632	         -0.76939671	          0.16391245	        -13.75929129	         -4.69334999	         -1.21552484	        -17.34348301	         10.61059518	         35.58356370	        -12.07195620	         -0.66326796	         -4.06878878	          0.01915152	          0.14764801	          0.03374633	          0.05754192	          0.21813805	          0.06630496	          0.03835069	          0.08217923	          0.05480953	          0.02214413	          0.11982863	          0.00999999	          0.00999999	          0.57280615	          0.03580376	          0.00999999	          0.00999999	          0.02306861	          0.05151687	          0.05734528	          0.15974241	          0.01836712	          0.08945823	          0.00999999	          0.00999999	          0.08402019	          0.26644283	          0.00999999	
          0.05888881	         -2.74759422	         -2.30181371	          7.15634325	          0.07685598	          0.93717121	          0.00311517	         28.58215984	          0.57548790	         -3.98440477	        -14.33410558	         -1.28407010	          0.10610009	        -13.44528804	         -5.07996694	         -1.82322108	        -19.58614781	          9.18728345	         37.72944618	        -11.52685931	          0.00448581	         -4.27714798	          0.02203882	          0.11855755	          0.02709743	          0.07952737	          0.23341741	          0.07054921	          0.03079461	          0.10997535	          0.04401064	          0.01778117	          0.19131434	          0.00999999	          0.00999999	          0.59185988	          0.05969262	          0.00999999	          0.00999999	          0.01852350	          0.11570213	          0.07045609	          0.12826904	          0.01474832	          0.07183265	          0.00999999	          0.00999999	          0.06746604	          0.21394672	          0.00999999	
